<?xml version="1.0" encoding="utf-8"?>
<!-- Generator: Adobe Illustrator 27.5.0, SVG Export Plug-In . SVG Version: 6.00 Build 0)  -->
<svg version="1.1" id="Layer_1" xmlns="http://www.w3.org/2000/svg" xmlns:xlink="http://www.w3.org/1999/xlink" x="0px" y="0px"
	 viewBox="0 0 150 131" style="enable-background:new 0 0 150 131;" xml:space="preserve">
<style type="text/css">
	.st0{fill:#EC062E;}
	.st1{fill:#FFA440;}
</style>
<g>
	<g>
		<g>
			<path d="M14.59,73.23l-2.69,6.6h1.67l0.55-1.46h2.62l0.55,1.46h1.76l-2.65-6.6H14.59z M14.58,77.13l0.84-2.24l0.84,2.24H14.58z"
				/>
			<polygon points="25.63,75.88 22.08,75.88 22.08,73.23 20.38,73.23 20.38,79.83 22.08,79.83 22.08,77.25 25.63,77.25 25.63,79.83 
				27.32,79.83 27.32,73.23 25.63,73.23 			"/>
			<polygon points="33.35,76.66 30.93,73.25 30.93,73.23 29.37,73.23 29.37,79.83 30.99,79.83 30.99,75.81 32.81,78.54 33.77,78.54 
				35.69,75.75 35.69,79.83 37.32,79.83 37.32,73.23 35.78,73.23 			"/>
			<path d="M41.32,73.23l-2.69,6.6h1.67l0.55-1.46h2.62l0.55,1.46h1.76l-2.65-6.6H41.32z M41.31,77.13l0.84-2.24l0.84,2.24H41.31z"
				/>
			<path d="M52.47,74.15c-0.72-0.62-1.62-0.92-2.7-0.92h-2.66v6.6h2.66c1.09,0,1.99-0.3,2.71-0.91c0.72-0.61,1.07-1.4,1.07-2.37
				C53.55,75.57,53.19,74.77,52.47,74.15z M51.22,78c-0.39,0.37-0.88,0.56-1.45,0.56h-0.96V74.5h0.97c0.56,0,1.04,0.19,1.44,0.58
				c0.4,0.39,0.59,0.88,0.59,1.46C51.81,77.14,51.61,77.63,51.22,78z"/>
		</g>
		<g>
			<path d="M75.42,73.23l-2.69,6.6h1.67l0.55-1.46h2.62l0.55,1.46h1.76l-2.65-6.6H75.42z M75.41,77.13l0.84-2.24l0.84,2.24H75.41z"
				/>
			<polygon points="82.91,73.23 81.21,73.23 81.21,79.83 85.8,79.83 85.8,78.54 82.91,78.54 			"/>
			<polygon points="86.02,75.84 87.09,75.84 87.95,73.13 86.32,73.13 			"/>
			<path d="M90.75,73.23l-2.69,6.6h1.67l0.55-1.46h2.62l0.55,1.46h1.76l-2.65-6.6H90.75z M90.74,77.13l0.84-2.24l0.84,2.24H90.74z"
				/>
			<path d="M100.98,76.47c0.65-0.31,0.98-0.77,0.98-1.39c0-0.61-0.24-1.07-0.73-1.38c-0.49-0.31-1.14-0.46-1.96-0.46h-2.73v6.6h2.89
				c0.86,0,1.54-0.16,2.05-0.49c0.5-0.33,0.76-0.77,0.76-1.33c0-0.36-0.11-0.67-0.33-0.94C101.67,76.79,101.37,76.59,100.98,76.47z
				 M98.24,74.39h1.03c0.33,0,0.57,0.07,0.74,0.21c0.17,0.14,0.26,0.33,0.26,0.58c0,0.25-0.08,0.45-0.25,0.61
				c-0.17,0.16-0.42,0.23-0.75,0.23h-1.03V74.39z M100.26,78.42c-0.18,0.16-0.44,0.23-0.79,0.23h-1.24v-1.63h1.19
				c0.37,0,0.64,0.08,0.83,0.24c0.18,0.16,0.28,0.36,0.28,0.6C100.53,78.07,100.44,78.26,100.26,78.42z"/>
			<path d="M109.26,74.15c-0.72-0.62-1.62-0.92-2.7-0.92h-2.66v6.6h2.66c1.09,0,1.99-0.3,2.71-0.91c0.72-0.61,1.07-1.4,1.07-2.37
				C110.33,75.57,109.98,74.77,109.26,74.15z M108.01,78c-0.39,0.37-0.88,0.56-1.45,0.56h-0.96V74.5h0.97
				c0.56,0,1.04,0.19,1.44,0.58c0.4,0.39,0.59,0.88,0.59,1.46C108.59,77.14,108.4,77.63,108.01,78z"/>
			<path d="M113.71,73.23l-2.69,6.6h1.67l0.55-1.46h2.62l0.55,1.46h1.76l-2.65-6.6H113.71z M113.7,77.13l0.84-2.24l0.84,2.24H113.7z
				"/>
			<polygon points="121.2,73.23 119.5,73.23 119.5,79.83 124.09,79.83 124.09,78.54 121.2,78.54 			"/>
			<polygon points="127.27,73.23 125.57,73.23 125.57,79.83 130.15,79.83 130.15,78.54 127.27,78.54 			"/>
			<path d="M135.4,73.23h-1.81l-2.69,6.6h1.67l0.55-1.46h2.62l0.55,1.46h1.76L135.4,73.23z M133.58,77.13l0.84-2.24l0.84,2.24
				H133.58z"/>
		</g>
	</g>
	<g>
		<g>
			<path class="st0" d="M66.74,85.79v8.45h-2.28v-6.02l-1.65,1l-0.95-1.57l3.06-1.85H66.74z"/>
			<path class="st0" d="M71.13,85.55c0.94,0,1.75,0.27,2.41,0.8c0.66,0.53,0.99,1.25,0.99,2.15c0,0.41-0.06,0.77-0.19,1.09
				c-0.13,0.32-0.36,0.73-0.68,1.24l-2.2,3.41h-2.54l1.8-2.85c-0.93-0.06-1.67-0.34-2.21-0.84c-0.54-0.5-0.81-1.19-0.81-2.06
				c0-0.91,0.33-1.62,1-2.15C69.36,85.81,70.17,85.55,71.13,85.55z M70.09,88.54c0,0.31,0.09,0.56,0.28,0.73
				c0.19,0.18,0.43,0.26,0.72,0.26c0.26,0,0.56-0.08,0.9-0.25c0.11-0.28,0.17-0.54,0.17-0.78c0-0.31-0.1-0.56-0.3-0.73
				c-0.2-0.18-0.44-0.26-0.73-0.26c-0.3,0-0.54,0.09-0.74,0.28C70.19,87.97,70.09,88.22,70.09,88.54z"/>
			<path class="st0" d="M80.68,89.75c1.04,0.44,1.56,1.14,1.56,2.1c0,0.86-0.33,1.51-0.99,1.95c-0.66,0.44-1.49,0.66-2.5,0.66
				c-0.98,0-1.8-0.22-2.46-0.66c-0.66-0.44-0.98-1.09-0.98-1.95c0-0.96,0.52-1.66,1.56-2.1c-0.85-0.4-1.27-1.01-1.27-1.81
				c0-0.77,0.3-1.36,0.9-1.77c0.6-0.41,1.36-0.61,2.27-0.61c0.9,0,1.66,0.2,2.26,0.61c0.6,0.41,0.9,1,0.9,1.77
				C81.94,88.76,81.52,89.36,80.68,89.75z M78.75,92.59c0.29,0,0.53-0.09,0.71-0.26c0.19-0.18,0.28-0.42,0.28-0.73
				c0-0.3-0.09-0.54-0.27-0.71c-0.18-0.17-0.41-0.25-0.69-0.25c-0.29,0-0.52,0.08-0.71,0.25c-0.18,0.17-0.28,0.41-0.28,0.73
				c0,0.3,0.09,0.54,0.27,0.72C78.25,92.5,78.48,92.59,78.75,92.59z M79.41,87.49c-0.16-0.15-0.37-0.22-0.62-0.22
				c-0.26,0-0.47,0.08-0.63,0.23c-0.17,0.15-0.25,0.37-0.25,0.66c0,0.26,0.08,0.47,0.25,0.63c0.16,0.16,0.37,0.23,0.6,0.23
				c0.26,0,0.47-0.08,0.64-0.25c0.17-0.16,0.26-0.38,0.26-0.66C79.65,87.85,79.57,87.64,79.41,87.49z"/>
			<path class="st0" d="M89.08,85.79v1.11l-3.07,7.34h-2.48l2.98-6.47h-3.61v-1.98H89.08z"/>
		</g>
		<g>
			<g>
				<path d="M38.32,87.88c-0.61,0-1.12,0.2-1.52,0.59c-0.4,0.4-0.6,0.91-0.6,1.53c0,0.63,0.2,1.14,0.59,1.53
					c0.39,0.39,0.9,0.59,1.52,0.59c0.61,0,1.11-0.2,1.51-0.59c0.4-0.39,0.6-0.9,0.6-1.53c0-0.63-0.2-1.14-0.59-1.53
					C39.43,88.08,38.93,87.88,38.32,87.88z M39.12,90.93c-0.22,0.23-0.49,0.35-0.81,0.35c-0.33,0-0.6-0.12-0.82-0.35
					c-0.22-0.23-0.32-0.54-0.32-0.93c0-0.39,0.11-0.7,0.33-0.93c0.22-0.23,0.49-0.35,0.81-0.35c0.33,0,0.6,0.12,0.82,0.35
					c0.22,0.23,0.33,0.54,0.33,0.94C39.45,90.39,39.34,90.7,39.12,90.93z"/>
				<path d="M41.85,89.46v-0.5h-0.91v3.08h0.91v-1.62c0.1-0.24,0.23-0.43,0.38-0.56c0.15-0.13,0.31-0.19,0.49-0.19
					c0.12,0,0.21,0.01,0.29,0.03l0.12-0.77c-0.07-0.02-0.17-0.03-0.3-0.03C42.44,88.9,42.12,89.09,41.85,89.46z"/>
				<path d="M44.32,87.66c-0.11-0.09-0.23-0.14-0.38-0.14c-0.15,0-0.28,0.05-0.38,0.14c-0.11,0.09-0.16,0.22-0.16,0.37
					c0,0.15,0.05,0.28,0.16,0.37c0.11,0.09,0.23,0.14,0.38,0.14c0.15,0,0.28-0.05,0.38-0.15c0.1-0.1,0.16-0.22,0.16-0.37
					C44.48,87.88,44.43,87.76,44.32,87.66z"/>
				<rect x="43.49" y="88.96" width="0.91" height="3.08"/>
				<path d="M47.48,89.37c-0.26-0.33-0.61-0.5-1.05-0.5c-0.43,0-0.79,0.13-1.08,0.4c-0.29,0.27-0.43,0.65-0.43,1.16
					c0,0.5,0.15,0.88,0.44,1.14c0.29,0.26,0.65,0.38,1.07,0.38c0.46,0,0.81-0.18,1.05-0.53v0.43c0,0.23-0.08,0.4-0.24,0.51
					c-0.16,0.11-0.37,0.16-0.63,0.16c-0.22,0-0.46-0.03-0.72-0.1c-0.26-0.07-0.48-0.15-0.66-0.25l-0.12,0.8
					c0.42,0.24,0.93,0.36,1.52,0.36c0.52,0,0.94-0.12,1.27-0.36c0.33-0.24,0.49-0.55,0.49-0.91v-3.1h-0.91V89.37z M47.13,91
					c-0.16,0.13-0.33,0.19-0.53,0.19c-0.21,0-0.39-0.07-0.52-0.2c-0.14-0.14-0.21-0.33-0.21-0.57c0-0.25,0.07-0.45,0.21-0.59
					c0.14-0.14,0.31-0.21,0.52-0.21c0.2,0,0.37,0.07,0.52,0.2c0.15,0.14,0.27,0.34,0.36,0.61C47.4,90.68,47.29,90.87,47.13,91z"/>
				<rect x="49.06" y="88.96" width="0.91" height="3.08"/>
				<path d="M49.89,87.66c-0.11-0.09-0.23-0.14-0.38-0.14c-0.15,0-0.28,0.05-0.38,0.14c-0.11,0.09-0.16,0.22-0.16,0.37
					c0,0.15,0.05,0.28,0.16,0.37c0.11,0.09,0.23,0.14,0.38,0.14c0.15,0,0.28-0.05,0.38-0.15c0.1-0.1,0.16-0.22,0.16-0.37
					C50.05,87.88,50,87.76,49.89,87.66z"/>
				<path d="M52.65,88.87c-0.44,0-0.81,0.2-1.1,0.59v-0.51h-0.91v3.08h0.91V90.4c0.21-0.51,0.5-0.76,0.86-0.76
					c0.18,0,0.3,0.05,0.38,0.16c0.08,0.11,0.12,0.28,0.12,0.51v1.73h0.91v-1.78c0-0.49-0.1-0.84-0.3-1.06
					C53.31,88.98,53.02,88.87,52.65,88.87z"/>
				<path d="M56.86,89.37c-0.25-0.33-0.6-0.5-1.05-0.5c-0.43,0-0.78,0.14-1.08,0.43c-0.29,0.29-0.44,0.69-0.44,1.2
					c0,0.51,0.15,0.9,0.45,1.19c0.3,0.28,0.65,0.43,1.07,0.43c0.44,0,0.79-0.19,1.05-0.58v0.51h0.91v-3.08h-0.91V89.37z
					 M56.51,91.12c-0.16,0.16-0.33,0.24-0.53,0.24c-0.21,0-0.39-0.08-0.52-0.24c-0.14-0.16-0.21-0.37-0.21-0.63
					c0-0.27,0.07-0.48,0.2-0.63c0.14-0.15,0.31-0.23,0.52-0.23c0.2,0,0.37,0.07,0.53,0.22c0.16,0.15,0.27,0.36,0.35,0.64
					C56.78,90.75,56.67,90.96,56.51,91.12z"/>
				<rect x="58.44" y="87.98" width="0.91" height="4.06"/>
			</g>
			<g>
				<path d="M93.36,93.37c-0.1,0-0.18,0.03-0.25,0.1c-0.07,0.07-0.1,0.15-0.1,0.25c0,0.1,0.03,0.18,0.1,0.25
					c0.07,0.07,0.15,0.1,0.25,0.1c0.1,0,0.18-0.03,0.24-0.1c0.07-0.07,0.1-0.15,0.1-0.25s-0.03-0.18-0.1-0.25
					C93.53,93.4,93.45,93.37,93.36,93.37z"/>
				<path d="M92.53,93.37c-0.1,0-0.18,0.03-0.24,0.1c-0.07,0.07-0.1,0.15-0.1,0.25s0.03,0.18,0.1,0.25c0.07,0.07,0.15,0.1,0.24,0.1
					c0.1,0,0.18-0.03,0.24-0.1c0.07-0.07,0.1-0.15,0.1-0.25s-0.03-0.18-0.1-0.25C92.71,93.4,92.62,93.37,92.53,93.37z"/>
				<path d="M107.64,88.82c-0.82,0-1.58,0.6-2.28,1.8c-0.19-0.04-0.28-0.18-0.28-0.42v-0.62h-0.74v0.61c0,0.17-0.05,0.29-0.14,0.35
					c-0.09,0.06-0.22,0.1-0.4,0.1h-5.44h-2.05c-0.19,0-0.32-0.03-0.41-0.1c-0.09-0.07-0.13-0.2-0.13-0.41v-2.7H95v2.44
					c0,0.2-0.1,0.34-0.29,0.41c-0.19,0.07-0.47,0.11-0.84,0.11h-0.75v0.96h0.67c0.17,0,0.28,0.01,0.35,0.04
					c0.06,0.03,0.09,0.07,0.09,0.14c0,0.13-0.12,0.25-0.37,0.35c-0.24,0.1-0.56,0.15-0.96,0.15c-0.4,0-0.71-0.09-0.92-0.26
					c-0.22-0.17-0.32-0.42-0.32-0.76c0-0.34,0.08-0.71,0.25-1.1l-0.62-0.22c-0.25,0.51-0.37,1.02-0.37,1.53
					c0,0.54,0.17,0.97,0.5,1.29s0.8,0.48,1.4,0.48c0.66,0,1.18-0.15,1.54-0.45c0.36-0.3,0.55-0.67,0.55-1.11
					c0-0.11-0.02-0.21-0.05-0.3c0.2-0.08,0.33-0.2,0.41-0.37c0.09,0.57,0.42,0.85,0.99,0.85h7.49c0.49,0,0.79-0.19,0.91-0.56
					c0.06,0.18,0.16,0.32,0.31,0.42c0.15,0.09,0.33,0.14,0.54,0.14h1.7c0.56,0,0.99-0.12,1.27-0.37c0.28-0.25,0.42-0.59,0.42-1.04
					c0-0.38-0.12-0.7-0.35-0.97S108.01,88.82,107.64,88.82z M107.33,90.64h-1.38c0.49-0.57,1.02-0.85,1.59-0.85
					c0.21,0,0.39,0.05,0.52,0.16c0.13,0.1,0.2,0.22,0.2,0.35C108.26,90.52,107.95,90.64,107.33,90.64z"/>
				<path d="M110.67,87.39h-0.45c-0.2,0-0.3-0.04-0.3-0.12c0-0.04,0.02-0.08,0.07-0.1c0.05-0.03,0.11-0.04,0.17-0.04
					c0.08,0,0.17,0.03,0.27,0.1l0.16-0.31c-0.1-0.16-0.24-0.24-0.43-0.24c-0.16,0-0.28,0.05-0.38,0.16
					c-0.09,0.11-0.14,0.23-0.14,0.37c0,0.08,0.02,0.15,0.05,0.21h-0.17v0.4h1.14V87.39z"/>
				<path d="M111.95,89.6c0.15-0.13,0.25-0.25,0.3-0.38c0.05-0.13,0.08-0.3,0.08-0.51v-1.27h-0.77v1.58c0,0.11-0.01,0.19-0.04,0.24
					c-0.09-0.07-0.75-0.49-1.98-1.27l-0.41,0.77c0.97,0.58,1.54,0.93,1.7,1.03l-1.33,0.89v0.95h1.66c0.38,0,0.68-0.1,0.89-0.29
					c0.21-0.2,0.32-0.49,0.32-0.87C112.37,90.15,112.23,89.87,111.95,89.6z M111.27,90.64h-0.91l0.93-0.6
					c0.16,0.09,0.27,0.16,0.35,0.23c0.08,0.06,0.12,0.13,0.12,0.2C111.76,90.58,111.6,90.64,111.27,90.64z"/>
				<rect x="112.99" y="87.43" width="0.76" height="4.18"/>
			</g>
		</g>
	</g>
	<g>
		<g>
			<g>
				<g>
					<g>
						<g>
							<path class="st0" d="M69.27,48.54c-0.19-0.69-0.73-1.15-1.4-1.09c-0.48,0.05-0.7,0.63-0.85,1c-0.67,1.66-1.68,2.61-2.42,2.49
								c-0.71-0.11-0.81-1.05-0.46-3.03c0.4-2.26,0.63-3.97,0.19-5.75c-0.45-1.8-1.45-3.46-3.14-4.76
								c-0.55-0.42-1.34-0.82-1.79-0.85c-0.68-0.05-0.9,0.39-0.64,1.03c0.23,0.57,0.4,1.13,0.42,1.71c0.06,1.38-0.48,2.79-1.05,4.04
								c-1.52,3.33-3.39,8.41-0.05,11.35c1.63,1.43,4.05,2.14,6.51,2.18c1.91,0.03,3.23-0.25,4.45-0.75
								c0.62-0.25,1.12-0.66,1.22-1.07c0.21-0.86-0.28-1.36-0.62-3.15C69.29,50.08,69.46,49.22,69.27,48.54z"/>
						</g>
						<g>
							<g>
								<path class="st1" d="M69.09,72.65c0.04-0.4-0.18-0.79-0.57-0.91c-0.44-0.14-0.8,0.16-1.16,0.65
									c-1.9,2.56-4.52,2.79-5.37,2.99c-1.45,0.33-2.74,1.11-3.17,2.62c-0.47,1.63,0.46,3.27,2.07,3.75
									c1.86,0.56,3.77-0.56,5.03-1.87c1.55-1.63,2.54-3.81,2.99-6C68.99,73.47,69.05,73.07,69.09,72.65z"/>
							</g>
						</g>
					</g>
					<path d="M62.18,71.34L62.18,71.34c0.89,0.89,2.32,0.89,3.21,0l0,0c0.89-0.89,0.89-2.32,0-3.21v0c-0.89-0.89-2.32-0.89-3.21,0
						l0,0C61.29,69.02,61.29,70.46,62.18,71.34z"/>
				</g>
				<g>
					<g>
						<g>
							<g>
								<path d="M137.51,51.72c-0.13,0-0.25,0.04-0.36,0.12l-2.89,2.2c-0.15,0.11-0.24,0.29-0.24,0.48v10.57
									c0,0.33,0.26,0.59,0.59,0.59c0.13,0,0.25-0.04,0.36-0.12l2.89-2.2c0.15-0.11,0.24-0.29,0.24-0.48V52.31
									C138.1,51.98,137.83,51.72,137.51,51.72z"/>
								<path d="M97.78,60.06c0.13,0,0.25-0.04,0.36-0.12l2.89-2.2c0.15-0.11,0.24-0.29,0.24-0.48v-9.73c0-0.33-0.26-0.59-0.59-0.59
									c-0.13,0-0.25,0.04-0.36,0.12l-2.89,2.2c-0.15,0.11-0.24,0.29-0.24,0.48v9.73C97.19,59.8,97.45,60.06,97.78,60.06z"/>
								<path d="M123.12,49.13l-1.31,2.69c-0.12,0.24-0.06,0.53,0.14,0.71l3.24,2.93c0.08,0.07,0.03,0.21-0.08,0.21l-6.48,0
									c-0.24,0-0.46,0.15-0.55,0.37l-2.44,5.01c-0.02,0.04-0.06,0.07-0.11,0.07l-1.24,0c-3.35,0-4.92-1.49-5.78-7.48
									c-0.04-0.3-0.29-0.52-0.59-0.52l-0.14,0c-0.19,0-0.36,0.09-0.47,0.23l-2.26,2.92c-0.11,0.14-0.15,0.32-0.11,0.49l0.83,4.02
									c0.01,0.07-0.03,0.13-0.1,0.14l-7.97,1.28c-0.29,0.05-0.5,0.3-0.5,0.59l0,0.67c0,0.12,0.03,0.23,0.1,0.33
									c0.9,1.35,2.6,2.81,5,2.81c2.16,0,4.23-0.7,5.38-2.56c0.05-0.08,0.15-0.08,0.2,0c0.37,0.59,1.81,2.55,4.95,2.55
									c1.29,0,2.41-0.49,3.24-1.16c0.03-0.03,0.08-0.03,0.12,0c1.27,0.94,3.2,1.67,6,2.32c0.27,0.06,0.55-0.07,0.68-0.32l1.9-3.9
									c0.16-0.35-0.05-0.76-0.43-0.84c-1.05-0.21-2.92-0.71-4.05-1.36c-0.11-0.06-0.06-0.22,0.06-0.22l8.13,0
									c0.23,0,0.44-0.13,0.54-0.34l2.3-4.71c0.12-0.24,0.06-0.53-0.14-0.71l-7.08-6.42C123.76,48.68,123.29,48.77,123.12,49.13z"
									/>
								<path d="M43.44,60.06c0.13,0,0.25-0.04,0.36-0.12l2.89-2.2c0.15-0.11,0.24-0.29,0.24-0.48v-9.73c0-0.33-0.26-0.59-0.59-0.59
									c-0.13,0-0.25,0.04-0.36,0.12l-2.89,2.2c-0.15,0.11-0.24,0.29-0.24,0.48v9.73C42.85,59.8,43.11,60.06,43.44,60.06z"/>
								<path d="M38.99,46.95c-0.13,0-0.25,0.04-0.36,0.12l-2.89,2.2c-0.15,0.11-0.24,0.29-0.24,0.48v3.93v5.79V61
									c0,0.07-0.05,0.12-0.12,0.12l-4.3,0c-0.07,0-0.12-0.05-0.12-0.12v-0.61v-6.38v-3.64c0-0.33-0.26-0.59-0.59-0.59
									c-0.13,0-0.25,0.04-0.36,0.12l-2.89,2.2c-0.15,0.11-0.24,0.29-0.24,0.48v3.93l0,3.17c-0.01,0.03-0.03,0.06-0.04,0.09
									c-1.02,0.87-2.43,1.35-4.2,1.35c-1.77,0-3.47-0.7-5.15-2.35c-0.23-0.23-0.6-0.22-0.84,0l-4.54,4.46
									c-0.23,0.23-0.24,0.6-0.01,0.84l2.01,2.1c0.23,0.24,0.62,0.25,0.86,0.01l2.53-2.53c0.92,1.68,2.7,2.94,4.7,2.94
									c1.83,0,3.68-0.8,5.13-2.61c0.05-0.06,0.14-0.06,0.19,0l1.8,2.37c0.11,0.15,0.29,0.24,0.48,0.24l5.68,0
									c0.13,0,0.26-0.04,0.36-0.12l3.5-2.66c0.15-0.11,0.24-0.29,0.24-0.48v-5.78v-6.38v-3.64
									C39.58,47.21,39.31,46.95,38.99,46.95z"/>
								<path d="M93.56,46.95c-0.13,0-0.25,0.04-0.36,0.12l-2.89,2.2c-0.15,0.11-0.24,0.29-0.24,0.48v9.73c0,0,0,0,0,0V61
									c0,0.07-0.05,0.12-0.12,0.12l-4.49,0c-0.11,0-0.16-0.12-0.09-0.2c0.51-0.54,1.74-2.36,1.74-4.3c0-0.88-0.42-1.61-1.24-2.04
									c-0.62-0.32-1.28-0.45-1.97-0.5c-0.91-0.07-3.69,0.22-4.54,0.31c-0.16,0.02-0.31,0.1-0.41,0.23l-2.6,3.36
									c-0.18,0.23-0.16,0.56,0.03,0.77l2.01,2.17c0.07,0.08,0.02,0.2-0.09,0.2l-6.92,0l1.23-2.33c0.17-0.32,0.02-0.71-0.31-0.84
									l-0.55-0.22c-0.17-0.07-0.37-0.05-0.52,0.04c-3.66,2.18-8.08,4.21-12.42,3.06c-3-0.79-3.8-4.42-4.52-7.01
									c-0.03-0.1-0.05-0.19-0.08-0.29c-0.07-0.26-0.31-0.44-0.58-0.44l-0.2,0c-0.19,0-0.36,0.09-0.47,0.23l-2.22,2.87
									c-0.12,0.15-0.16,0.36-0.1,0.54l1.22,4.01c0.02,0.07-0.02,0.14-0.1,0.15l-8.41,1.29c-0.29,0.04-0.51,0.3-0.51,0.59l0,0.67
									c0,0.12,0.03,0.23,0.1,0.33c0.9,1.35,2.6,2.81,5,2.81c2.17,0,4.24-0.7,5.4-2.58c0.04-0.07,0.14-0.08,0.19-0.01
									c0.41,0.57,2.19,2.57,6.6,2.57c2.81,0,6.07-1.29,9-2.68c0.05-0.02,0.11-0.01,0.15,0.04l1.85,2.42
									c0.11,0.15,0.29,0.24,0.48,0.24l5.63,0c2.44,0,4.28-1.93,4.69-2.4c0.05-0.05,0.13-0.05,0.18,0
									c1.78,2.08,3.36,2.35,6.57,2.39l1.38,0c0.13,0,0.26-0.04,0.36-0.12l3.5-2.66c0.15-0.11,0.24-0.29,0.24-0.48v-5.78v-6.38
									v-3.64C94.15,47.21,93.88,46.95,93.56,46.95z"/>
							</g>
							<g>
								<path d="M14.28,49.36c-1.29,0-2.33,1.05-2.33,2.33c0,1.29,1.05,2.33,2.33,2.33c1.29,0,2.33-1.05,2.33-2.33
									C16.62,50.41,15.57,49.36,14.28,49.36z M16.13,51.69c0,1.02-0.83,1.84-1.84,1.84c-1.02,0-1.84-0.83-1.84-1.84
									c0-1.02,0.83-1.84,1.84-1.84C15.3,49.85,16.13,50.68,16.13,51.69z"/>
								<path d="M14.71,51.84c0.08-0.03,0.15-0.08,0.22-0.15c0.1-0.11,0.16-0.26,0.16-0.45c0-0.23-0.08-0.4-0.25-0.52
									c-0.15-0.11-0.37-0.17-0.65-0.17h-0.59c-0.02,0-0.04,0.02-0.04,0.04v2.18c0,0.02,0.02,0.04,0.04,0.04h0.4
									c0.02,0,0.04-0.02,0.04-0.04v-0.8h0.11c0.06,0,0.11,0.01,0.14,0.04c0.04,0.03,0.08,0.08,0.12,0.15l0.34,0.63
									c0.01,0.01,0.02,0.02,0.03,0.02h0.44c0.01,0,0.03-0.01,0.03-0.02s0.01-0.03,0-0.04l-0.39-0.72
									C14.8,51.96,14.76,51.89,14.71,51.84z M14.6,51.27c0,0.1-0.03,0.17-0.09,0.21c-0.07,0.05-0.18,0.07-0.33,0.07h-0.15v-0.57
									h0.15c0.15,0,0.26,0.02,0.33,0.07C14.57,51.1,14.6,51.17,14.6,51.27z"/>
							</g>
						</g>
					</g>
				</g>
			</g>
		</g>
	</g>
</g>
</svg>
