<?xml version="1.0" encoding="utf-8"?>
<!-- Generator: Adobe Illustrator 26.0.0, SVG Export Plug-In . SVG Version: 6.00 Build 0)  -->
<svg version="1.1" id="Layer_1" xmlns="http://www.w3.org/2000/svg" xmlns:xlink="http://www.w3.org/1999/xlink" x="0px" y="0px"
	 viewBox="0 0 60 60" style="enable-background:new 0 0 60 60;" xml:space="preserve">
<style type="text/css">
	.st0{fill:#2DAB66;}
</style>
<g>
	<path class="st0" d="M41.9,24.6c0.3,0,0.6-0.1,0.8-0.3L45,22c0.4-0.4,0.4-1.1,0-1.5c-0.4-0.4-1.1-0.4-1.5,0l-2.4,2.4
		c-0.4,0.4-0.4,1.1,0,1.5C41.3,24.5,41.6,24.6,41.9,24.6z"/>
	<path class="st0" d="M51.1,28.4c0.1-0.7-0.2-1.4-0.7-2c-0.5-0.5-1.2-0.8-1.9-0.8h-0.3c0.7-1.3,1.6-3.5,1.9-6.3c0.1-1-0.3-1.9-1-2.6
		c-0.7-0.7-1.7-0.9-2.7-0.8c-1.2,0.1-2.3,0.2-3.5,0.2c-2.7-0.1-4.7,0.7-5.9,2.1c-0.1,0.1-0.1,0.2-0.2,0.3c-0.7-0.7-1.6-1.1-2.5-1.4
		c0-0.2,0-0.3,0-0.5c0.1-1.2,0.3-2.9-0.3-4.6c-0.6-2-2.4-2.9-4.4-2.3c-0.7,0.2-1.3,0.5-1.8,0.9c-0.5,0.3-0.9,0.5-1.3,0.6
		c-0.3,0.1-0.6,0-1.2-0.4c-0.3-0.2-0.7-0.4-1.2-0.6c-1-0.3-2-0.3-3.1,0.2c-1.7,0.7-2.9,2.2-3.1,3.8c-0.2-0.1-0.3-0.2-0.5-0.3
		c-0.9-0.5-2-0.6-2.9-0.2c-1,0.4-1.8,1.3-2,2.4c-0.2,1-0.6,2-1.1,2.9c-0.6,1.4-1.1,2.7-1.2,4.1c0,0.9,0.1,1.8,0.4,2.7
		c-0.4,0.1-0.8,0.4-1.1,0.7c-0.5,0.5-0.7,1.2-0.7,2c0.6,8,5.8,14.8,12.9,17.8v1.7c0,1.4,1.2,2.6,2.6,2.6h11.4c1.4,0,2.6-1.2,2.6-2.6
		v-1.7C45.3,43.2,50.5,36.4,51.1,28.4z M43,18.3c1.4,0,2.6,0,3.7-0.2l0.2,0c0.3-0.1,0.7,0,0.9,0.3c0.1,0.1,0.3,0.4,0.3,0.8
		c-0.4,3.8-2.1,6.2-2.3,6.5h-7.3c0.3-0.7,0.5-1.5,0.5-2.3c0-1-0.3-2-0.7-2.9c0.2-0.3,0.3-0.5,0.5-0.8C39.7,18.5,41.6,18.2,43,18.3z
		 M36.8,23.3c0,0.9-0.3,1.7-0.7,2.3h-7.2c-0.4-0.7-0.7-1.5-0.7-2.3c0-2.4,1.9-4.3,4.3-4.3C34.9,19,36.8,20.9,36.8,23.3z M20.1,15
		c-0.1-1.1,0.8-2.1,1.7-2.5c0.6-0.2,1.1-0.3,1.6-0.1c0.2,0.1,0.5,0.2,0.8,0.4c0.7,0.4,1.7,1,3,0.6c0.6-0.2,1.2-0.5,1.7-0.8
		c0.5-0.3,0.9-0.5,1.4-0.7c1.4-0.4,1.6,0.5,1.7,0.8c0.4,1.3,0.3,2.6,0.2,3.7c0,0.2,0,0.3,0,0.4c-3.4,0.2-6.1,3-6.1,6.4
		c0,0.8,0.2,1.6,0.5,2.3h-3.2c0.4-1.1,0.7-2.6,0.3-4.3c-0.4-1.9-1.5-3.6-3.1-5.1C20.2,15.7,20.1,15.3,20.1,15z M13.4,19.8
		c0.4-1,0.9-2.1,1.2-3.2c0.1-0.4,0.4-0.8,0.8-0.9c0.2-0.1,0.6-0.2,1,0.1c3,1.8,4.7,3.7,5.2,5.9c0.4,1.8-0.2,3.2-0.6,3.9h-2.5
		c-0.5-2-0.1-4.2-0.1-4.2c0.1-0.6-0.3-1.2-0.9-1.3s-1.2,0.3-1.3,0.9c0,0.1-0.4,2.3,0,4.6h-3.2c-0.4-0.8-0.6-1.6-0.5-2.5
		C12.4,22.2,12.9,21,13.4,19.8z"/>
</g>
</svg>
