<?xml version="1.0" encoding="utf-8"?>
<!-- Generator: Adobe Illustrator 26.0.0, SVG Export Plug-In . SVG Version: 6.00 Build 0)  -->
<svg version="1.1" id="Layer_1" xmlns="http://www.w3.org/2000/svg" xmlns:xlink="http://www.w3.org/1999/xlink" x="0px" y="0px"
	 viewBox="0 0 60 60" style="enable-background:new 0 0 60 60;" xml:space="preserve">
<style type="text/css">
	.st0{fill:#34388C;}
</style>
<path class="st0" d="M41.9,16.6H29.1l1.2-4.5c0.1-0.3,0.3-0.4,0.6-0.4h6.8c0.6,0,1.1-0.5,1.1-1.1c0-0.6-0.5-1.1-1.1-1.1h-6.8
	c-1.3,0-2.3,0.9-2.6,2l-1.3,5H18c-1.4,0-2.5,1.2-2.5,2.5v0.9c0,1.3,0.9,2.2,2,2.5l1.6,24.3c0.1,2.1,1.9,3.8,3.9,3.8h13.6
	c2.1,0,3.8-1.6,3.9-3.8l1.6-24.3c1.3-0.2,2.2-1.3,2.2-2.5v-0.9C44.5,17.7,43.3,16.6,41.9,16.6z M40.2,22.5l-0.4,6H19.9l-0.4-6H40.2z
	 M36.7,48.3H23.1c-1,0-1.8-0.8-1.9-1.7L20.9,42h18l-0.3,4.6C38.5,47.6,37.7,48.3,36.7,48.3z"/>
</svg>
