<?xml version="1.0" encoding="utf-8"?>
<!-- Generator: Adobe Illustrator 26.0.0, SVG Export Plug-In . SVG Version: 6.00 Build 0)  -->
<svg version="1.1" id="Layer_1" xmlns="http://www.w3.org/2000/svg" xmlns:xlink="http://www.w3.org/1999/xlink" x="0px" y="0px"
	 viewBox="0 0 48 48" style="enable-background:new 0 0 48 48;" xml:space="preserve">
<style type="text/css">
	.st0{fill:#F5A045;}
</style>
<path class="st0" d="M41.3,20.6c0-2-4.8-3-9.5-3.4c-0.5-0.3-0.9-0.6-1.4-0.9l-0.3-0.2c-0.4-0.2-0.8-0.5-0.9-0.7c0-0.1,0-0.3,0.1-0.5
	c0-0.2,0.1-0.5,0.1-0.7c0.1-1.7-1.3-3.1-3-3.2c-3.2-0.2-6.5,1.8-8.2,3c-1.3,0.9-2.5,2-3.6,3.2c-4.1,0.5-8,1.4-8,3.2v0.6l0,0
	c0.3,8.7,7.4,15.6,16.2,15.6h2.3c8.8,0,15.9-7,16.2-15.7l0,0L41.3,20.6L41.3,20.6z M19.5,16c1.4-1,4.2-2.7,6.6-2.7
	c0.1,0,0.2,0,0.3,0c0.5,0,0.9,0.4,0.9,0.9c0,0.1,0,0.3-0.1,0.4c-0.1,0.3-0.1,0.7-0.1,1.2c0.2,1.3,1.2,1.9,2,2.3l0.2,0.1
	c2.3,1.4,4.2,2.5,5.8,3.7c-2.6,0.4-6.3,0.8-11.2,0.8c-4.2,0-7.6-0.3-10.1-0.6c0.1-0.2,0.1-0.3,0.2-0.5C15.5,19.4,17.4,17.5,19.5,16z
	"/>
</svg>
