<?xml version="1.0" encoding="utf-8"?>
<!-- Generator: Adobe Illustrator 26.0.0, SVG Export Plug-In . SVG Version: 6.00 Build 0)  -->
<svg version="1.1" id="Layer_1" xmlns="http://www.w3.org/2000/svg" xmlns:xlink="http://www.w3.org/1999/xlink" x="0px" y="0px"
	 viewBox="0 0 48 48" style="enable-background:new 0 0 48 48;" xml:space="preserve">
<style type="text/css">
	.st0{fill:#EC062E;}
</style>
<g>
	<path class="st0" d="M44.8,12.9c0-4-2.5-7.1-5.5-7.1s-5.5,3.2-5.5,7.1c0,0.4,0.1,0.8,0.1,1.2c-2.6-2.4-5.9-3.8-9.7-3.8
		s-7.1,1.5-9.8,3.8c0.1-0.4,0.1-0.8,0.1-1.3V7.6c0-0.5-0.4-1-1-1s-1,0.4-1,1v5.3c0,1.6-0.5,3.1-1.4,4.1c-1.1,1.3-1.7,2.7-1.6,4.2
		l0.1,3.7v0.1c0,0.1,0,0.2,0,0.3l0.3,14.3c0,0.3-0.1,0.5-0.3,0.7c-0.4,0.4-1,0.4-1.4,0c-0.2-0.2-0.3-0.4-0.3-0.7L8.2,21
		c0-1.5-0.5-2.9-1.7-4.2c-0.9-1-1.4-2.5-1.4-4.1V7.6c0-0.5-0.4-1-1-1s-1,0.4-1,1v5.3c0,2.1,0.7,4,1.9,5.3c0.5,0.6,1.2,1.6,1.2,2.9
		L5.9,39.3c0,0.8,0.3,1.6,0.8,2.1c0.5,0.5,1.3,0.9,2.1,0.9s1.6-0.3,2.1-0.9c0.5-0.6,0.9-1.3,0.8-2.1l-0.1-7c2.6,4.2,7.1,7,12.4,7
		s9.9-2.9,12.4-7l-0.1,7c0,0.8,0.3,1.6,0.8,2.1c0.6,0.6,1.3,0.9,2.1,0.9c0.8,0,1.6-0.3,2.1-0.9c0.6-0.6,0.9-1.3,0.8-2.1l-0.1-19.3
		c0-0.6,0.4-1.1,0.6-1.3C44,17.4,44.8,15.2,44.8,12.9z M41.2,17.3c-0.9,0.8-1.3,1.8-1.3,2.8l0.4,19.3c0,0.3-0.1,0.5-0.3,0.7
		c-0.4,0.4-1,0.4-1.4,0c-0.2-0.2-0.3-0.4-0.3-0.7L38.6,25c0-0.1,0-0.1,0-0.2v-0.1l0.1-4.7c0-1-0.4-2-1.3-2.8c-1.1-1-1.7-2.6-1.7-4.4
		c0-2.9,1.6-5.2,3.7-5.2c2,0,3.7,2.4,3.7,5.2C42.9,14.6,42.3,16.3,41.2,17.3z"/>
	<path class="st0" d="M8.8,15.8c0.5,0,1-0.4,1-1V7.4c0-0.5-0.4-1-1-1c-0.5,0-1,0.4-1,1v7.4C7.9,15.3,8.3,15.8,8.8,15.8z"/>
</g>
</svg>
