<?xml version="1.0" encoding="utf-8"?>
<!-- Generator: Adobe Illustrator 26.0.0, SVG Export Plug-In . SVG Version: 6.00 Build 0)  -->
<svg version="1.1" id="Layer_1" xmlns="http://www.w3.org/2000/svg" xmlns:xlink="http://www.w3.org/1999/xlink" x="0px" y="0px"
	 viewBox="0 0 48 48" style="enable-background:new 0 0 48 48;" xml:space="preserve">
<style type="text/css">
	.st0{fill:#F5A045;}
</style>
<g>
	<path class="st0" d="M34.8,33.4V9.9c0-0.5-0.3-1.1-0.6-1.4c-0.4-0.3-0.7-0.4-1.1-0.4c-0.2-2.3-2.2-3.8-3.8-4.2
		c-1.2-0.3-2.4,0.1-3.1,1l-0.4,0.3c-0.3,0.4-0.8,0.5-1.2,0.4l-1.8-0.7c-1.3-0.5-3.9-1.2-5.7-0.4c-1.3,0.7-2.1,2.1-2.1,3.7
		c-0.4,0.1-0.8,0.2-1.1,0.5c-0.4,0.4-0.6,0.9-0.6,1.5V33c0,0,0,0.4,0,1.1v4c0,3.3,2.7,6.1,6.1,6.1h9.4h0.1c0,0,0,0,0.1,0
		c1.6,0,3-0.6,4.1-1.8c1.2-1.2,1.8-2.7,1.8-4.3l0,0v-1.5C34.9,35.3,34.8,34.3,34.8,33.4z M32.5,31.7c0.2,2.5-0.3,4.4-1.4,5.6
		c-1.2,1.2-3,1.9-5.5,1.9c-6.6,0-10.3-1.8-10.5-5.1L15.2,10C26.1,10.4,31.5,17,32.5,31.7z M27.7,12.8c1.4-1.6,3.8-2.3,5.1-2.6v11.6
		C31.6,17.9,30,15,27.7,12.8z"/>
	<path class="st0" d="M19.5,20.3l7.3,2.1c0.1,0,0.2,0,0.3,0c0.4,0,0.8-0.3,0.9-0.7c0.2-0.5-0.2-1.1-0.7-1.2L20,18.5
		c-0.5-0.2-1.1,0.2-1.2,0.7C18.7,19.6,19.1,20.2,19.5,20.3z"/>
	<path class="st0" d="M19.5,26.5l7.3,2.1c0.1,0,0.2,0,0.3,0c0.4,0,0.8-0.3,0.9-0.7c0.2-0.5-0.2-1.1-0.7-1.2L20,24.6
		c-0.5-0.2-1.1,0.2-1.2,0.7C18.7,25.8,19.1,26.3,19.5,26.5z"/>
	<path class="st0" d="M19.5,32.6l7.3,2.1c0.1,0,0.2,0,0.3,0c0.4,0,0.8-0.3,0.9-0.7c0.2-0.5-0.2-1.1-0.7-1.2L20,30.7
		c-0.5-0.2-1.1,0.2-1.2,0.7C18.7,31.9,19.1,32.5,19.5,32.6z"/>
</g>
</svg>
